General
Complete name : Wreck it Ralph 2012 TS READNFO x264 AAC-UNiQUE
Format : MPEG-4
Format profile : Base Media
Codec ID : isom
File size : 1.45 GiB
Duration : 1h 33mn
Overall bit rate mode : Variable
Overall bit rate : 2 213 Kbps
Encoded date : UTC 2012-11-13 12:26:27

Video
ID : 1
Format : AVC
Format/Info : Advanced Video Codec
Format profile : High@L4.1
Format settings, CABAC : Yes
Format settings, ReFrames : 3 frames
Codec ID : avc1
Codec ID/Info : Advanced Video Coding
Duration : 1h 33mn
Bit rate mode : Variable
Bit rate : 2 099 Kbps
Maximum bit rate : 40.0 Mbps
Width : 720 pixels
Height : 304 pixels
Display aspect ratio : 2.35:1
Frame rate mode : Constant
Frame rate : 24.000 fps
Color space : YUV
Chroma subsampling : 4:2:0
Bit depth : 8 bits
Scan type : Progressive
Bits/(Pixel*Frame) : 0.400
Stream size : 1.38 GiB (95%)
Writing library : x264 core 129 r2230 1cffe9f

Audio
ID : 2
Format : AAC
Format/Info : Advanced Audio Codec
Format profile : LC
Codec ID : 40
Duration : 1h 32mn
Bit rate mode : Variable
Bit rate : 112 Kbps
Maximum bit rate : 169 Kbps
Channel(s) : 2 channels
Channel positions : Front: L R
Sampling rate : 44.1 KHz
Compression mode : Lossy
Stream size : 74.3 MiB (5%)
Language : English
Encoded date : UTC 2012-11-13 12:28:19

Sources : Video - TommyCook - Thanks!
: Audio - JiiNX - Thanks!

Storyline
A video game villain wants to be a hero and sets out to fulfill his dream, but his quest brings havoc to the whole arcade where he lives.

iMDB: http://uk.imdb.com/title/tt1772341/

Screens
 
http://www.shotpix.com/images/29264364691139484222.png 
http://www.shotpix.com/images/41854352828570943359.png 
http://www.shotpix.com/images/95981364887698580071.png 
http://www.shotpix.com/images/41445739288400278694.png 
http://www.shotpix.com/images/32550732302182003532.png 
http://www.shotpix.com/images/05349623584954379370.png
